# xmcd CD database file
#
# Track frame offsets:
#	150
#	14984
#	27967
#	40522
#	52686
#	64227
#	76545
#	89336
#	100285
#	110339
#	120040
#	131336
#	142284
#	155627
#	171934
#	183885
#	197863
#	211231
#	225629
#	236420
#
# Disc length: 3341 seconds
#
# Revision: 0
# Processed by: cddbd v1.5.2PL0 Copyright (c) Steve Scherf et al.
# Submitted via: CDex 1.70beta2
#
DISCID=020d0b14
DTITLE=Bud Powell - Bebop Story Vol 1 1945-49 CD 051
DYEAR=2009
DGENRE=Jazz
TTITLE0=The Man I Love
TTITLE1=Reverse the Changes
TTITLE2=September In The Rain
TTITLE3=I'll Remeber April
TTITLE4=Indiana
TTITLE5=Somebody Loves Me
TTITLE6=I Should Care
TTITLE7=Bud's Bubble
TTITLE8=Off Minor
TTITLE9=Nice Work If You Can Get It
TTITLE10=Everything Happens To Me
TTITLE11=Tempus Fugit
TTITLE12=Celia
TTITLE13=Cherokee
TTITLE14=I'll Keep Loving
TTITLE15=Strictly Confidential
TTITLE16=All God's Chillun Got Rhythm
TTITLE17=You Go To My Head
TTITLE18=Ornithology
TTITLE19=Ornithology
EXTD=YEAR: 2009
EXTT0=
EXTT1=
EXTT2=
EXTT3=
EXTT4=
EXTT5=
EXTT6=
EXTT7=
EXTT8=
EXTT9=
EXTT10=
EXTT11=
EXTT12=
EXTT13=
EXTT14=
EXTT15=
EXTT16=
EXTT17=
EXTT18=
EXTT19=
PLAYORDER=
